:version 1.10
:name ASF
:units
  mass 1
  length 1
  angle deg
:documentation
  ASF file generated by Kaydara
:root
  axis xyz
  order  tx ty tz rx ry rz
  position 0 0 0
  orientation 0 0 0
:bonedata
  begin
    id 1
    name LeftUpLegDummy
    direction 1 -2.30186e-007 -8.31532e-007
    length 2.93387
    axis 0 0 0 xyz
  end
  begin
    id 2
    name LeftUpLeg
    direction -1.82929e-007 -1 -1.48925e-009
    length 17.3336
    axis -3.48766 0.00143442 -0.000521554 xyz
    dof rx ry rz
  end
  begin
    id 3
    name LeftLeg
    direction -1.82929e-007 -1 -5.23717e-011
    length 14.9995
    axis 3.68178 -0.00654042 -0.000282425 xyz
    dof rx ry rz
  end
  begin
    id 4
    name LeftFoot
    direction 8.31532e-007 -4.54534e-011 1
    length 6.74421
    axis 1.87234e-006 4.66016e-005 -5.96866e-006 xyz
    dof rx ry rz
  end
  begin
    id 5
    name LeftToes
    direction 0.00818058 -0.00485161 0.999955
    length 3.85048
    axis 1.06247e-005 4.65869e-005 -5.96999e-006 xyz
    dof rx ry rz
  end
  begin
    id 6
    name SpineDummy
    direction -5.8607e-008 0.943407 -0.331637
    length 5.93572
    axis 0 0 0 xyz
  end
  begin
    id 7
    name Spine
    direction -1.04988e-007 0.999988 0.00495137
    length 10.1015
    axis -0.001389 0.000121417 6.61666e-006 xyz
    dof rx ry rz
  end
  begin
    id 8
    name Spine1
    direction 0 0 0
    length 0
    axis -0.001389 0.00012144 6.56766e-006 xyz
    dof rx ry rz
  end
  begin
    id 9
    name RightShoulderDummy
    direction -0.98348 0.17941 -0.0240696
    length 3.59882
    axis -0.001389 0.00012144 6.56766e-006 xyz
  end
  begin
    id 10
    name RightShoulder
    direction -0.978693 0.204882 0.0135597
    length 2.70001
    axis 0.215806 0.000203631 -0.00679732 xyz
    dof rx ry rz
  end
  begin
    id 11
    name RightArm
    direction -1 3.85509e-006 8.31394e-007
    length 10.2459
    axis -23.2009 -0.134239 -0.964098 xyz
    dof rx ry rz
  end
  begin
    id 12
    name RightForeArm
    direction -1 3.85569e-006 8.3129e-007
    length 8.16799
    axis -9.92322 0.0658061 0.17887 xyz
    dof rx ry rz
  end
  begin
    id 13
    name RightHand
    direction -0.992843 -0.0414604 0.112003
    length 5.28593
    axis -0.00960638 0.00330669 -0.185225 xyz
    dof rx ry rz
  end
  begin
    id 14
    name LeftShoulder1Dummy
    direction 0.983523 0.179172 -0.0240748
    length 3.59866
    axis -0.001389 0.00012144 6.56766e-006 xyz
  end
  begin
    id 15
    name LeftShoulder1
    direction 0.978627 0.205195 0.0135605
    length 2.70019
    axis -0.001389 0.00012144 6.57583e-006 xyz
    dof rx ry rz
  end
  begin
    id 16
    name LeftArm
    direction 1 3.51895e-006 -8.60188e-007
    length 10.2459
    axis -23.1894 0.134785 0.967513 xyz
    dof rx ry rz
  end
  begin
    id 17
    name LeftForeArm
    direction 1 3.51921e-006 -7.32029e-007
    length 8.16799
    axis -9.91835 -0.0656957 -0.177789 xyz
    dof rx ry rz
  end
  begin
    id 18
    name LeftHand
    direction 0.992938 -0.0411636 0.11126
    length 5.32135
    axis -0.00960237 -0.00340661 0.185177 xyz
    dof rx ry rz
  end
  begin
    id 19
    name HEadDummy
    direction 1.01974e-006 0.999861 -0.016675
    length 2.99946
    axis -0.001389 0.00012144 6.56766e-006 xyz
  end
  begin
    id 20
    name HEad
    direction -0.0222689 0.980941 0.193023
    length 5.12695
    axis -0.001389 0.00012144 6.56766e-006 xyz
    dof rx ry rz
  end
  begin
    id 21
    name RightUpLegDummy
    direction -1 2.30186e-007 8.31532e-007
    length 2.93387
    axis 0 0 0 xyz
  end
  begin
    id 22
    name RightUpLeg
    direction -1.82966e-007 -1 1.56832e-007
    length 17.3336
    axis -3.4909 -0.000906625 0.00028951 xyz
    dof rx ry rz
  end
  begin
    id 23
    name RightLeg
    direction -1.82786e-007 -1 -1.80317e-007
    length 14.9995
    axis 3.68513 0.0193739 -0.131021 xyz
    dof rx ry rz
  end
  begin
    id 24
    name RightFoot
    direction 8.31721e-007 -4.63324e-011 1
    length 6.74421
    axis 4.81691e-005 -0.120479 -0.188785 xyz
    dof rx ry rz
  end
  begin
    id 25
    name RightToes
    direction 0.00124746 -0.014064 0.9999
    length 3.85082
    axis 0.000481921 0.542163 -0.142575 xyz
    dof rx ry rz
  end
:hierarchy
  begin
    root LeftUpLegDummy SpineDummy RightUpLegDummy
    LeftUpLegDummy LeftUpLeg
    LeftUpLeg LeftLeg
    LeftLeg LeftFoot
    LeftFoot LeftToes
    SpineDummy Spine
    Spine Spine1
    Spine1 RightShoulderDummy LeftShoulder1Dummy HEadDummy
    RightShoulderDummy RightShoulder
    RightShoulder RightArm
    RightArm RightForeArm
    RightForeArm RightHand
    LeftShoulder1Dummy LeftShoulder1
    LeftShoulder1 LeftArm
    LeftArm LeftForeArm
    LeftForeArm LeftHand
    HEadDummy HEad
    RightUpLegDummy RightUpLeg
    RightUpLeg RightLeg
    RightLeg RightFoot
    RightFoot RightToes
  end

:SAMPLES-PER-SECOND 30
:FULLY-SPECIFIED
:DEGREES
246
root  1.13828 34.0823 -12.3011 -163.109 70.0866 -179.299
LeftUpLeg  -26.9283 14.5703 -6.81668
LeftLeg  12.3467 -1.64798 -0.252538
LeftFoot  4.07558 0.0111339 -0.127043
LeftToes  -7.12539 7.65994e-007 1.12379e-007
Spine  11.3601 -0.113257 -2.39262
Spine1  22.1924 -0.399155 -3.37171
RightShoulder  0.0855679 5.33476 -3.64615
RightArm  18.4252 -10.4902 74.444
RightForeArm  101.864 78.9947 113.464
RightHand  -1.15808 -8.20465 16.3989
LeftShoulder1  0.164391 -1.37359 -4.8969
LeftArm  -0.710951 1.44188 -59.9233
LeftForeArm  59.6473 -78.1512 -57.9897
LeftHand  0.0661791 1.45665 5.39419
HEad  -2.50343 1.82563 -4.42656
RightUpLeg  -27.7632 -11.3335 -3.57513
RightLeg  17.2616 2.36917 0.571902
RightFoot  6.73872 0.00495282 0.293393
RightToes  -33.9473 -0.175181 -0.281199
247
root  1.20605 34.0698 -12.3055 -164.482 70.3502 179.94
LeftUpLeg  -26.1121 14.7407 -6.82983
LeftLeg  12.3587 -1.58964 -0.243995
LeftFoot  3.88895 0.0103827 -0.118187
LeftToes  -7.60386 7.65994e-007 1.12379e-007
Spine  11.3374 -0.128323 -2.45006
Spine1  22.1483 -0.412357 -3.49963
RightShoulder  0.0874438 5.31451 -3.75259
RightArm  18.3462 -10.459 74.7197
RightForeArm  101.955 78.9934 113.478
RightHand  -1.13092 -8.23948 15.9621
LeftShoulder1  0.162805 -1.49267 -4.80587
LeftArm  0.488585 1.62806 -59.1776
LeftForeArm  66.8213 -78.9555 -65.7642
LeftHand  0.0564695 1.27217 4.68743
HEad  -2.05695 1.77444 -4.33828
RightUpLeg  -27.3162 -11.2211 -3.6553
RightLeg  18.1996 0.708505 0.182893
RightFoot  5.86585 0.0150945 0.082921
RightToes  -34.2055 -0.173926 -0.280106
248
root  1.29161 34.0626 -12.2922 -165.157 70.5291 179.54
LeftUpLeg  -25.4329 14.6841 -6.71039
LeftLeg  11.9506 -1.3601 -0.199027
LeftFoot  3.81434 0.00889128 -0.0979603
LeftToes  -8.51776 7.65994e-007 1.12379e-007
Spine  11.1515 -0.0906186 -2.45004
Spine1  21.787 -0.294549 -3.58945
RightShoulder  0.0906862 5.37189 -3.8516
RightArm  17.9258 -10.7779 74.8522
RightForeArm  103.341 78.7896 115.82
RightHand  -1.14974 -8.71366 15.3636
LeftShoulder1  0.157623 -1.69763 -4.83148
LeftArm  2.15389 2.40911 -58.1665
LeftForeArm  75.2837 -79.5744 -75.4214
LeftHand  0.0487192 1.28373 3.95526
HEad  -1.80539 1.69712 -4.14945
RightUpLeg  -27.1817 -11.1948 -3.36311
RightLeg  20.081 -0.767276 -0.227123
RightFoot  3.95986 0.0145025 -0.0419518
RightToes  -33.6947 -0.170173 -0.276807
249
root  1.39967 34.0595 -12.2472 -166.312 70.5684 178.91
LeftUpLeg  -24.6819 14.7014 -6.5771
LeftLeg  11.9593 -1.26335 -0.185166
LeftFoot  3.63507 0.00731167 -0.0764925
LeftToes  -9.02052 7.65994e-007 1.12379e-007
Spine  11.0687 0.00590607 -2.4609
Spine1  21.5915 0.0189659 -3.82538
RightShoulder  0.0988596 5.53688 -4.13207
RightArm  16.9924 -10.7093 74.9659
RightForeArm  112.463 77.3853 127.085
RightHand  -0.909345 -10.2245 10.5015
LeftShoulder1  0.150004 -1.83616 -4.68158
LeftArm  4.55952 3.51512 -57.0836
LeftForeArm  83.3786 -79.8625 -85.1021
LeftHand  0.019058 0.692469 2.7553
HEad  -2.11976 1.5954 -4.00572
RightUpLeg  -26.4269 -10.4321 -3.23554
RightLeg  22.8302 -0.215407 -0.077706
RightFoot  1.03665 0.00315549 0.0287318
RightToes  -32.5981 -0.162215 -0.269611
250
root  1.50919 34.0492 -12.1761 -167.53 70.5862 178.142
LeftUpLeg  -24.1941 14.4732 -6.41678
LeftLeg  12.3701 -0.959766 -0.148091
LeftFoot  3.35592 0.00413525 -0.030335
LeftToes  -9.24608 7.65994e-007 1.12379e-007
Spine  10.9915 0.282284 -2.50936
Spine1  21.3337 0.821522 -4.34648
RightShoulder  0.116368 5.22917 -5.32677
RightArm  14.1788 -8.85366 76.6397
RightForeArm  120.865 74.7577 139.017
RightHand  -0.389532 -12.8977 3.81331
LeftShoulder1  0.13727 -2.07847 -4.41958
LeftArm  8.18967 4.95813 -55.4161
LeftForeArm  94.6092 -79.7771 -98.7224
LeftHand  5.67585e-005 0.677891 -0.356764
HEad  -3.15016 1.48057 -3.80849
RightUpLeg  -25.2579 -9.27749 -3.04669
RightLeg  25.352 1.91752 0.757024
RightFoot  -2.22751 -0.00761074 -0.0139297
RightToes  -30.7878 -0.149383 -0.257404
251
root  1.56834 34.0315 -12.11 -168.798 69.9431 176.78
LeftUpLeg  -24.4297 13.0374 -6.44026
LeftLeg  13.1192 -0.141487 -0.0250409
LeftFoot  3.15167 -0.00147098 0.0534608
LeftToes  -9.58544 7.65994e-007 1.12379e-007
Spine  10.8131 0.593898 -2.62483
Spine1  20.7521 1.87257 -5.33965
RightShoulder  0.145185 4.88521 -6.71188
RightArm  9.31635 -4.9773 79.0189
RightForeArm  127.988 71.047 148.587
RightHand  0.202828 -14.1921 -1.25864
LeftShoulder1  0.115598 -2.28562 -3.80454
LeftArm  13.1577 6.37361 -53.689
LeftForeArm  106.857 -79.0153 -113.216
LeftHand  -0.011463 0.391502 -3.65913
HEad  -4.44425 1.49246 -3.34254
RightUpLeg  -23.7644 -9.00286 -2.99793
RightLeg  25.0254 1.56714 0.607806
RightFoot  -3.99939 -0.0136164 -0.0124333
RightToes  -30.5915 -0.148015 -0.256056
252
root  1.57814 34.0339 -12.0364 -169.938 69.3721 174.763
LeftUpLeg  -25.93 12.216 -7.07005
LeftLeg  14.7292 -0.0250929 -0.00661486
LeftFoot  2.77417 -0.00486527 0.104294
LeftToes  -10.2076 7.65994e-007 1.12379e-007
Spine  10.3899 1.25825 -2.84024
Spine1  19.5557 3.71021 -6.63725
RightShoulder  0.172943 4.32031 -7.87807
RightArm  4.50897 0.344047 81.0572
RightForeArm  132.128 66.4906 155.654
RightHand  0.769284 -14.9808 -5.47354
LeftShoulder1  0.0881745 -2.58867 -2.69902
LeftArm  18.9792 7.53221 -52.7921
LeftForeArm  116.899 -77.9682 -123.11
LeftHand  0.0658631 -1.21741 -6.6009
HEad  -5.79119 0.933409 -2.69564
RightUpLeg  -23.0544 -10.5881 -3.29305
RightLeg  21.9479 2.2993 0.75625
RightFoot  -3.08855 -0.016897 0.0161527
RightToes  -33.386 -0.167919 -0.274797
253
root  1.53004 34.062 -11.967 -170.702 69.148 173.142
LeftUpLeg  -28.1816 11.6565 -7.55203
LeftLeg  17.777 -0.077444 -0.021533
LeftFoot  2.2121 -0.00854432 0.15992
LeftToes  -11.9938 7.65994e-007 1.12379e-007
Spine  10.0484 2.24337 -2.91825
Spine1  18.4571 6.16521 -7.59637
RightShoulder  0.197156 3.34953 -8.77895
RightArm  0.408087 6.8286 82.0413
RightForeArm  133.58 62.2969 159.992
RightHand  1.14856 -14.8695 -8.411
LeftShoulder1  0.0633448 -3.2178 -1.19203
LeftArm  23.5481 8.47202 -53.8463
LeftForeArm  123.713 -77.2239 -128.017
LeftHand  0.213118 -2.70617 -9.39815
HEad  -6.48397 0.125707 -2.57635
RightUpLeg  -23.9127 -13.8469 -3.11626
RightLeg  21.7225 5.20447 1.69037
RightFoot  -2.72699 -0.0101674 -0.0496259
RightToes  -34.0398 -0.172706 -0.27904
254
root  1.49944 34.1659 -11.9301 -170.149 69.8733 173.363
LeftUpLeg  -29.8089 11.2787 -6.7299
LeftLeg  20.3729 -1.24051 -0.374339
LeftFoot  2.87278 -0.00980329 0.174441
LeftToes  -13.0904 7.65994e-007 1.12379e-007
Spine  9.96113 3.43302 -2.8688
Spine1  17.8854 8.98238 -8.19267
RightShoulder  0.221642 2.82985 -9.83837
RightArm  -3.94505 13.0411 82.5945
RightForeArm  135.914 59.2145 162.415
RightHand  1.42209 -14.7146 -10.6059
LeftShoulder1  0.044475 -3.80763 -0.124253
LeftArm  26.9142 9.09957 -55.4118
LeftForeArm  123.888 -77.2549 -127.832
LeftHand  0.383783 -4.01997 -11.2919
HEad  -7.56884 -0.437654 -2.59004
RightUpLeg  -23.9917 -16.2668 -2.31116
RightLeg  20.4543 8.25792 2.47825
RightFoot  -1.69252 -0.00519731 0.025704
RightToes  -32.3937 -0.160747 -0.268253
255
root  1.49411 34.3223 -11.9498 -169.549 70.8331 173.189
LeftUpLeg  -30.6197 10.6341 -5.52215
LeftLeg  19.7537 -2.715 -0.784191
LeftFoot  5.57968 -0.00194662 0.0399378
LeftToes  -13.059 7.65994e-007 1.12379e-007
Spine  9.9554 4.10003 -3.16988
Spine1  17.504 10.6444 -9.25846
RightShoulder  0.233201 2.41042 -10.0554
RightArm  -6.09174 19.1437 83.4646
RightForeArm  136.125 57.4581 163.599
RightHand  1.89566 -15.004 -13.9454
LeftShoulder1  0.0309072 -4.03288 0.61004
LeftArm  26.9787 10.0279 -56.3732
LeftForeArm  116.752 -77.9819 -123.007
LeftHand  0.415614 -4.76026 -10.3589
HEad  -9.67489 -0.0562081 -2.03577
RightUpLeg  -23.0472 -16.315 -2.04267
RightLeg  16.2776 9.38339 2.08796
RightFoot  0.556081 -0.000202355 0.418715
RightToes  -32.0398 -0.158216 -0.26589
256
root  1.48496 34.445 -12.0547 -169.062 71.4101 172.766
LeftUpLeg  -30.4455 9.38405 -4.1263
LeftLeg  16.5741 -1.61387 -0.371282
LeftFoot  8.60651 -0.00880594 0.117017
LeftToes  -14.0946 7.65994e-007 1.12379e-007
Spine  9.80746 4.30983 -3.47798
Spine1  16.8975 11.2697 -10.1522
RightShoulder  0.241689 1.97889 -10.2385
RightArm  -6.68027 23.8843 84.7682
RightForeArm  135.628 56.968 163.91
RightHand  2.18133 -15.3082 -15.7495
LeftShoulder1  0.0280458 -4.00566 0.557232
LeftArm  25.652 11.0724 -56.9648
LeftForeArm  112.616 -78.607 -117.668
LeftHand  0.432745 -5.12261 -10.0346
HEad  -10.4819 -0.0308712 -1.37318
RightUpLeg  -22.4931 -16.9009 -1.89707
RightLeg  12.8392 10.5856 1.69896
RightFoot  2.55971 -0.0105027 0.847411
RightToes  -31.2302 -0.152483 -0.26416
257
root  1.47891 34.4675 -12.2132 -167.815 72.1334 173.121
LeftUpLeg  -29.753 8.0682 -2.35652
LeftLeg  13.5286 -4.58326 -0.796195
LeftFoot  10.3526 0.0410249 -0.452869
LeftToes  -15.9883 7.65994e-007 1.12379e-007
Spine  9.6469 4.41548 -3.73891
Spine1  16.3732 11.5947 -10.8313
RightShoulder  0.244434 1.77058 -10.8063
RightArm  -6.9945 27.4046 86.2595
RightForeArm  135.939 56.5395 164.173
RightHand  2.20489 -15.6527 -15.5633
LeftShoulder1  0.0233342 -4.24667 0.863587
LeftArm  25.2103 11.9118 -57.3437
LeftForeArm  110.561 -78.7982 -115.706
LeftHand  0.461919 -5.48002 -10.0116
HEad  -10.8785 -0.535279 -1.21206
RightUpLeg  -22.9183 -17.5479 -1.51488
RightLeg  11.4617 11.9056 1.61795
RightFoot  3.41775 -0.0220663 1.11694
RightToes  -30.793 -0.151351 -0.262619
258
root  1.43331 34.4218 -12.4575 -164.093 73.2805 176.415
LeftUpLeg  -29.334 8.39335 -1.07162
LeftLeg  12.2183 -6.238 -0.935823
LeftFoot  9.57329 0.0575147 -0.686845
LeftToes  -16.9073 7.65994e-007 1.12379e-007
Spine  9.7267 4.53598 -3.70842
Spine1  16.4864 11.8877 -10.8783
RightShoulder  0.244458 1.77595 -10.9356
RightArm  -7.20863 30.3363 86.5951
RightForeArm  136.551 56.4367 164.233
RightHand  2.04694 -15.6133 -14.4722
LeftShoulder1  0.0206875 -4.64866 1.34517
LeftArm  24.6933 12.2062 -58.2247
LeftForeArm  110.398 -78.8619 -114.999
LeftHand  0.454783 -5.67037 -9.54519
HEad  -11.2732 -0.767824 -1.05495
RightUpLeg  -23.6578 -15.7294 -1.13435
RightLeg  11.6418 11.2704 1.56855
RightFoot  3.74997 -0.0235798 1.15165
RightToes  -31.1162 -0.152316 -0.261751
259
root  1.30953 34.3973 -12.7649 -161.174 74.4958 179.187
LeftUpLeg  -29.3443 10.1229 -1.58094
LeftLeg  11.6053 -6.23518 -0.867371
LeftFoot  9.04228 0.0527659 -0.629163
LeftToes  -15.1069 7.65994e-007 1.12379e-007
Spine  10.0998 4.582 -3.59592
Spine1  17.1353 12.0859 -10.8867
RightShoulder  0.245435 2.21207 -10.8248
RightArm  -7.49702 32.6476 86.0048
RightForeArm  136.627 57.2516 163.729
RightHand  1.97388 -15.6665 -13.8993
LeftShoulder1  0.0260858 -4.95524 1.4658
LeftArm  24.2639 11.6509 -59.0615
LeftForeArm  108.402 -79.1359 -111.622
LeftHand  0.461063 -5.9965 -9.16605
HEad  -11.4954 -0.732513 -0.813049
RightUpLeg  -24.5628 -13.7713 -1.30686
RightLeg  12.6268 10.4959 1.64514
RightFoot  4.0769 -0.0271212 1.18465
RightToes  -31.4681 -0.15416 -0.262039
260
root  1.12526 34.4164 -13.073 -158.265 75.2882 -178.151
LeftUpLeg  -29.6621 11.7215 -2.3676
LeftLeg  11.0205 -6.37145 -0.820099
LeftFoot  8.82814 0.0504663 -0.625081
LeftToes  -12.4182 7.65994e-007 1.12379e-007
Spine  10.5539 4.58588 -3.36014
Spine1  17.9896 12.1991 -10.6924
RightShoulder  0.250031 2.78743 -10.8498
RightArm  -8.11476 33.7689 85.1794
RightForeArm  135.626 58.3785 162.996
RightHand  1.96656 -15.4908 -14.0083
LeftShoulder1  0.0321393 -5.33768 1.60338
LeftArm  24.1926 10.7438 -59.8771
LeftForeArm  104.474 -79.4776 -106.199
LeftHand  0.472005 -6.47033 -8.71502
HEad  -11.3282 -0.605106 -0.730342
RightUpLeg  -25.4857 -12.9098 -1.32043
RightLeg  13.1793 10.4484 1.74041
RightFoot  4.9946 -0.0429855 1.38795
RightToes  -32.1312 -0.156999 -0.264542
